<?xml version="1.0" encoding="UTF-8"?>
<svg version="1.1" xmlns="http://www.w3.org/2000/svg" viewBox="350 300 350 400" width="1024" height="1024" preserveAspectRatio="xMidYMid meet">
<!-- Square white background -->
<rect x="345" y="320" width="360" height="360" fill="#FFFFFF" rx="20"/>
<g stroke="#000000" stroke-width="3.5" stroke-linejoin="round" stroke-linecap="round" stroke-miterlimit="10">
<path d="M0 0 C4.25414623 -0.02465622 8.50825498 -0.04283899 12.76245117 -0.05493164 C14.21070073 -0.05997101 15.65894517 -0.06680253 17.10717773 -0.07543945 C19.18474588 -0.08752247 21.26224697 -0.09323211 23.33984375 -0.09765625 C24.59144287 -0.10289307 25.84304199 -0.10812988 27.13256836 -0.11352539 C30 0 30 0 31 1 C31.09695905 2.55863252 31.12371663 4.12167478 31.12304783 5.68332005 C31.12503888 6.7024626 31.12702993 7.72160516 31.12908131 8.77163082 C31.12616847 9.90487488 31.12325563 11.03811895 31.12025452 12.20570374 C31.12153615 13.99558131 31.12153615 13.99558131 31.12284368 15.82161802 C31.12421188 19.14863992 31.12106437 22.47560372 31.11606562 25.80261862 C31.11176446 29.38477495 31.11320731 32.96692934 31.1139679 36.54908752 C31.11449334 42.76037589 31.11134437 48.97165379 31.10573006 55.18293953 C31.09761787 64.16351838 31.09500013 73.14409214 31.09374207 82.12467425 C31.0915511 96.69355198 31.08488982 111.26242413 31.07543945 125.83129883 C31.06626648 139.98722302 31.05918509 154.1431457 31.05493164 168.29907227 C31.05466892 169.17101225 31.05440619 170.04295224 31.05413551 170.94131465 C31.05283051 175.31539281 31.05156679 179.68947098 31.05032361 184.06354916 C31.03994961 220.37570354 31.02205571 256.68785097 31 293 C23.41 293 15.82 293 8 293 C8 292.34 8 291.68 8 291 C3.71 291 -0.58 291 -5 291 C-5 290.34 -5 289.68 -5 289 C-7.31 289 -9.62 289 -12 289 C-12 288.34 -12 287.68 -12 287 C-14.97 287 -17.94 287 -21 287 C-21 286.34 -21 285.68 -21 285 C-22.98 285 -24.96 285 -27 285 C-27 284.34 -27 283.68 -27 283 C-28.32 283 -29.64 283 -31 283 C-31 282.34 -31 281.68 -31 281 C-33.31 280.67 -35.62 280.34 -38 280 C-38 279.34 -38 278.68 -38 278 C-39.32 277.67 -40.64 277.34 -42 277 C-42 276.34 -42 275.68 -42 275 C-43.32 275 -44.64 275 -46 275 C-46 274.34 -46 273.68 -46 273 C-47.32 273 -48.64 273 -50 273 C-50 272.34 -50 271.68 -50 271 C-51.32 271 -52.64 271 -54 271 C-54 270.34 -54 269.68 -54 269 C-55.32 268.67 -56.64 268.34 -58 268 C-58 267.34 -58 266.68 -58 266 C-58.55558594 265.73832031 -59.11117187 265.47664063 -59.68359375 265.20703125 C-62.27496867 263.85671953 -64.64632507 262.33108204 -67.0625 260.6875 C-67.91972656 260.11386719 -68.77695312 259.54023437 -69.66015625 258.94921875 C-72.18364359 256.84701477 -73.40803943 254.8441167 -75 252 C-76.65788785 250.65576661 -78.32576317 249.32381517 -80 248 C-81.61074699 246.20278722 -83.14726919 244.36207201 -84.66796875 242.48828125 C-85.95079945 240.87117455 -85.95079945 240.87117455 -88 240 C-88.309375 239.01 -88.61875 238.02 -88.9375 237 C-89.288125 236.01 -89.63875 235.02 -90 234 C-90.99 233.67 -91.98 233.34 -93 233 C-94.38671875 231.4765625 -94.38671875 231.4765625 -95.6875 229.625 C-96.12449219 229.01914062 -96.56148438 228.41328125 -97.01171875 227.7890625 C-98 226 -98 226 -98 223 C-98.66 223 -99.32 223 -100 223 C-100 222.01 -100 221.02 -100 220 C-100.66 220 -101.32 220 -102 220 C-102 218.68 -102 217.36 -102 216 C-102.66 216 -103.32 216 -104 216 C-104 214.68 -104 213.36 -104 212 C-104.66 212 -105.32 212 -106 212 C-106 210.35 -106 208.7 -106 207 C-106.66 207 -107.32 207 -108 207 C-110.27357713 201.64916267 -112.11222081 196.77056476 -113 191 C-113.66 190.67 -114.32 190.34 -115 190 C-115 187.69 -115 185.38 -115 183 C-115.66 183 -116.32 183 -117 183 C-118.76245418 175.70398709 -119.28338562 168.8298987 -119.23046875 161.33984375 C-119.23001053 160.2687587 -119.22955231 159.19767365 -119.2290802 158.09413147 C-119.22607988 155.85123575 -119.21826102 153.60834169 -119.20581055 151.36547852 C-119.18738572 147.91610438 -119.18530232 144.46699667 -119.18554688 141.01757812 C-119.1806372 138.83333099 -119.1748113 136.64908568 -119.16796875 134.46484375 C-119.16685593 133.42956039 -119.1657431 132.39427704 -119.16459656 131.32762146 C-119.15821671 130.37895706 -119.15183685 129.43029266 -119.14526367 128.45288086 C-119.14145187 127.61478378 -119.13764008 126.77668671 -119.13371277 125.91319275 C-119 124 -119 124 -118 123 C-117.76636119 121.15108054 -117.58696365 119.29511969 -117.4375 117.4375 C-117.35371094 116.42558594 -117.26992188 115.41367187 -117.18359375 114.37109375 C-117.12300781 113.58863281 -117.06242187 112.80617188 -117 112 C-116.34 112 -115.68 112 -115 112 C-115 109.03 -115 106.06 -115 103 C-114.34 103 -113.68 103 -113 103 C-113 101.02 -113 99.04 -113 97 C-112.34 97 -111.68 97 -111 97 C-111 95.35 -111 93.7 -111 92 C-110.34 92 -109.68 92 -109 92 C-109 90.35 -109 88.7 -109 87 C-108.34 87 -107.68 87 -107 87 C-107 85.68 -107 84.36 -107 83 C-106.34 83 -105.68 83 -105 83 C-104.855625 82.236875 -104.71125 81.47375 -104.5625 80.6875 C-104 78 -104 78 -103 75 C-102.01 75 -101.02 75 -100 75 C-100 73.35 -100 71.7 -100 70 C-99.34 70 -98.68 70 -98 70 C-98 69.01 -98 68.02 -98 67 C-97.34 67 -96.68 67 -96 67 C-95.938125 66.113125 -95.87625 65.22625 -95.8125 64.3125 C-94.78424927 60.12040086 -93.17356981 58.89760722 -90 56 C-88.25213662 54.04462773 -86.54787468 52.05600434 -84.84375 50.0625 C-82.6523726 47.61112867 -80.33361402 45.31630234 -78 43 C-77.10023438 42.06542969 -76.20046875 41.13085938 -75.2734375 40.16796875 C-69.02523246 33.7117047 -62.72438747 27.70661602 -55 23 C-54.34 23 -53.68 23 -53 23 C-53 22.34 -53 21.68 -53 21 C-49.63316085 18.56839395 -48.26649636 18 -44 18 C-43.505 16.515 -43.505 16.515 -43 15 C-41.68 15 -40.36 15 -39 15 C-39 14.34 -39 13.68 -39 13 C-28.62642369 8.40774487 -28.62642369 8.40774487 -23 9 C-23 8.34 -23 7.68 -23 7 C-21.35 7 -19.7 7 -18 7 C-18 6.34 -18 5.68 -18 5 C-15.36 5 -12.72 5 -10 5 C-10 4.34 -10 3.68 -10 3 C-6.7 3 -3.4 3 0 3 C0 2.01 0 1.02 0 0 Z " fill="#012F83" transform="translate(477,363)"/>
<path d="M0 0 C44.88 0 89.76 0 136 0 C136.0309375 25.2140625 136.0309375 25.2140625 136.0625 50.9375 C136.071604 56.25351318 136.08070801 61.56952637 136.09008789 67.04663086 C136.09460449 73.51672363 136.09460449 73.51672363 136.09544373 76.54151917 C136.09698364 78.66314402 136.10050951 80.78476797 136.10557556 82.90638733 C136.11285018 86.11200491 136.11390751 89.31756881 136.11352539 92.52319336 C136.1171235 93.47516822 136.12072161 94.42714308 136.12442875 95.40796566 C136.11402634 101.88597366 136.11402634 101.88597366 135 103 C134.647247 104.82601552 134.34337344 106.66155569 134.0625 108.5 C133.23116075 113.72556101 132.20211233 118.84809003 131 124 C130.34 124 129.68 124 129 124 C129 125.32 129 126.64 129 128 C128.34 128.33 127.68 128.66 127 129 C125.94647157 131.30965848 124.94280904 133.6429774 124 136 C123.34 136 122.68 136 122 136 C122 136.99 122 137.98 122 139 C120.4609375 140.6484375 120.4609375 140.6484375 118.375 142.375 C117.64410156 142.98859375 116.91320312 143.6021875 116.16015625 144.234375 C115.44730469 144.81703125 114.73445312 145.3996875 114 146 C110.96804444 148.49278564 108.06164662 150.93395005 105.375 153.8125 C103 156 103 156 99 156 C99 156.66 99 157.32 99 158 C97.68 158 96.36 158 95 158 C95 158.66 95 159.32 95 160 C93.35 160 91.7 160 90 160 C90 160.66 90 161.32 90 162 C88.02 162 86.04 162 84 162 C84 162.66 84 163.32 84 164 C77.44845511 164.98390305 71.05668838 165.15063921 64.4375 165.125 C63.43525391 165.12886719 62.43300781 165.13273438 61.40039062 165.13671875 C56.1585024 165.12981699 51.16405859 164.91258258 46 164 C46 163.01 46 162.02 46 161 C45.34 160.896875 44.68 160.79375 44 160.6875 C37.21870867 159.13345407 31.15187574 156.18579279 25 153 C25 152.01 25 151.02 25 150 C24.46375 149.773125 23.9275 149.54625 23.375 149.3125 C17.19706931 145.89838041 13.0141033 141.37496185 10 135 C10 134.01 10 133.02 10 132 C9.34 132 8.68 132 8 132 C7.67 130.35 7.34 128.7 7 127 C6.34 127 5.68 127 5 127 C4.72285156 125.78441406 4.44570313 124.56882812 4.16015625 123.31640625 C3.79446102 121.73172693 3.42856525 120.14709388 3.0625 118.5625 C2.88009766 117.76005859 2.69769531 116.95761719 2.50976562 116.13085938 C1.90338992 112.25047271 1.90338992 112.25047271 0 109 C-0.09550698 107.58321089 -0.12188483 106.16168759 -0.12025452 104.74168396 C-0.12163201 103.82508468 -0.12300951 102.90848539 -0.12442875 101.96411037 C-0.12083064 100.94655698 -0.11723253 99.92900358 -0.11352539 98.88061523 C-0.11364593 97.80006646 -0.11376646 96.71951769 -0.11389065 95.60622501 C-0.11314115 92.09032736 -0.10551121 88.57448198 -0.09765625 85.05859375 C-0.09618695 82.89522324 -0.09516617 80.73185238 -0.09460449 78.56848145 C-0.08935026 70.52481556 -0.0753892 62.48115727 -0.0625 54.4375 C-0.041875 36.473125 -0.02125 18.50875 0 0 Z " fill="#012E83" transform="translate(520,496)"/>
<path d="M0 0 C6.6 0 13.2 0 20 0 C20 0.66 20 1.32 20 2 C22.97 2 25.94 2 29 2 C29 2.66 29 3.32 29 4 C30.98 4 32.96 4 35 4 C35 4.66 35 5.32 35 6 C36.32 6 37.64 6 39 6 C40.515625 7.36328125 40.515625 7.36328125 42 9 C43.23255193 9.75828739 44.4841461 10.48621694 45.75 11.1875 C51.71606541 14.83098275 57.06427653 20.11742767 59 27 C59.66 27 60.32 27 61 27 C62.99785435 31.1205746 63.17835515 34.45194365 63 39 C64.485 39.495 64.485 39.495 66 40 C66 41.65 66 43.3 66 45 C66.66 45 67.32 45 68 45 C68.07480519 48.98347226 68.12890718 52.96666594 68.16479492 56.95068359 C68.18709408 58.96336248 68.22523653 60.97584584 68.26367188 62.98828125 C68.31718965 70.08830584 68.09018532 75.57241454 65 82 C64.608125 82.99 64.21625 83.98 63.8125 85 C63.544375 85.66 63.27625 86.32 63 87 C62.34 87 61.68 87 61 87 C60.9175 87.53625 60.835 88.0725 60.75 88.625 C58.46939135 95.84692738 52.29775143 101.72821568 46.1875 105.9375 C44 107 44 107 42 107 C42 107.66 42 108.32 42 109 C40.515 109.495 40.515 109.495 39 110 C38.67 110.66 38.34 111.32 38 112 C36.02 112 34.04 112 32 112 C32 112.99 32 113.98 32 115 C30.02 115 28.04 115 26 115 C26 115.66 26 116.32 26 117 C15.44 117 4.88 117 -6 117 C-6 116.34 -6 115.68 -6 115 C-8.64 114.67 -11.28 114.34 -14 114 C-14 113.34 -14 112.68 -14 112 C-14.556875 111.87625 -15.11375 111.7525 -15.6875 111.625 C-18.22114364 110.94023145 -20.57921032 110.00866237 -23 109 C-23 108.34 -23 107.68 -23 107 C-23.5465625 106.95359375 -24.093125 106.9071875 -24.65625 106.859375 C-28.13807572 105.58270557 -30.11950184 102.97427582 -32.5 100.25 C-33.20962891 99.46109375 -33.20962891 99.46109375 -33.93359375 98.65625 C-42.02004164 89.6065964 -42.02004164 89.6065964 -43.6875 85.25 C-44.67519137 82.19451742 -44.67519137 82.19451742 -46 81 C-46.04063832 79.33382885 -46.042721 77.66611905 -46 76 C-46.66 76 -47.32 76 -48 76 C-48.50604924 73.60530271 -49.00499517 71.20948283 -49.5 68.8125 C-49.64308594 68.13896484 -49.78617188 67.46542969 -49.93359375 66.77148438 C-50.68069842 63.12490207 -51.17352282 59.72351043 -51 56 C-50.34 56 -49.68 56 -49 56 C-49 51.38 -49 46.76 -49 42 C-48.34 42 -47.68 42 -47 42 C-47 40.02 -47 38.04 -47 36 C-46.34 36 -45.68 36 -45 36 C-45 34.35 -45 32.7 -45 31 C-44.34 31 -43.68 31 -43 31 C-42.67 29.68 -42.34 28.36 -42 27 C-41.34 27 -40.68 27 -40 27 C-39.62875 25.9171875 -39.62875 25.9171875 -39.25 24.8125 C-36.86653951 19.44971389 -32.96650813 15.88709396 -28.5 12.1875 C-27.5615625 11.39730469 -26.623125 10.60710937 -25.65625 9.79296875 C-23 8 -23 8 -19 8 C-19 7.34 -19 6.68 -19 6 C-15.86501708 4.14223235 -13.62528568 3.79859524 -10 4 C-10 3.34 -10 2.68 -10 2 C-6.7 2 -3.4 2 0 2 C0 1.34 0 0.68 0 0 Z " fill="#022F83" transform="translate(577,358)"/>
<path d="M0 0 C44.22 0 88.44 0 134 0 C134 0.33 134 0.66 134 1 C133.32762645 1.00331015 132.6552529 1.00662029 131.96250439 1.01003075 C115.61312498 1.09119979 99.26384721 1.18327207 82.91459942 1.28752708 C75.00827157 1.33767993 67.10195423 1.38412249 59.19555664 1.421875 C52.30550858 1.45478387 45.41554143 1.49460888 38.52558261 1.54279006 C34.87634389 1.56806613 31.22715893 1.58984406 27.57785606 1.60334396 C23.50710773 1.61853236 19.43661773 1.6491592 15.3659668 1.68115234 C14.15180588 1.68331253 12.93764496 1.68547272 11.68669128 1.68769836 C10.02712402 1.70444359 10.02712402 1.70444359 8.33403015 1.7215271 C6.88911965 1.72982324 6.88911965 1.72982324 5.41501904 1.73828697 C2.73943625 1.84016679 2.73943625 1.84016679 0 4 C0 2.68 0 1.36 0 0 Z " fill="#002577" transform="translate(521,497)"/>
<path d="M0 0 C0.66 0.33 1.32 0.66 2 1 C-7.5 13.05769231 -7.5 13.05769231 -12 16 C-12.66 15.67 -13.32 15.34 -14 15 C-14 14.34 -14 13.68 -14 13 C-12.4609375 11.484375 -12.4609375 11.484375 -10.375 9.75 C-6.72639996 6.65323448 -3.34103014 3.42455589 0 0 Z " fill="#264A93" transform="translate(411,394)"/>
<path d="M0 0 C0.99 0.33 1.98 0.66 3 1 C2.55269531 1.37511719 2.10539063 1.75023437 1.64453125 2.13671875 C-1.31206362 4.63942272 -4.06547209 7.07156251 -6.6875 9.9375 C-7.450625 10.618125 -8.21375 11.29875 -9 12 C-11.3125 11.8125 -11.3125 11.8125 -13 11 C-8.25 8 -8.25 8 -6 8 C-5.938125 7.4225 -5.87625 6.845 -5.8125 6.25 C-4.65310925 3.03937946 -2.82684384 1.81725675 0 0 Z " fill="#31569A" transform="translate(632,640)"/>
<path d="M0 0 C-2.46301423 2.46301423 -4.27360036 2.76766521 -7.625 3.625 C-8.62789063 3.88539063 -9.63078125 4.14578125 -10.6640625 4.4140625 C-11.43492187 4.60742188 -12.20578125 4.80078125 -13 5 C-13 4.34 -13 3.68 -13 3 C-11.68 2.67 -10.36 2.34 -9 2 C-9 1.34 -9 0.68 -9 0 C-5.62182575 -0.84454356 -3.32534757 -1.10844919 0 0 Z " fill="#032A78" transform="translate(458,372)"/>
<path d="M0 0 C2.37473224 2.37473224 2.5171933 3.62371653 3.125 6.875 C3.29257812 7.73867188 3.46015625 8.60234375 3.6328125 9.4921875 C4 12 4 12 4 16 C3.34 16 2.68 16 2 16 C2 13.36 2 10.72 2 8 C1.34 8 0.68 8 0 8 C0 5.36 0 2.72 0 0 Z " fill="#012773" transform="translate(361,536)"/>
<path d="M0 0 C0.33 0.99 0.66 1.98 1 3 C0.34 3 -0.32 3 -1 3 C-1.04125 3.5775 -1.0825 4.155 -1.125 4.75 C-2.44065958 8.13312465 -4.96552364 9.19222685 -8 11 C-6.46457536 6.52167812 -4.39145948 2.19572974 0 0 Z " fill="#274D99" transform="translate(545,374)"/>
<path d="M0 0 C0.33 0.66 0.66 1.32 1 2 C-0.32 2.33 -1.64 2.66 -3 3 C-3 3.66 -3 4.32 -3 5 C-5.31 5 -7.62 5 -10 5 C-6.7321794 2.82145293 -3.61941735 1.50239966 0 0 Z " fill="#5676AE" transform="translate(448,372)"/>
<path d="M0 0 C0.66 0.33 1.32 0.66 2 1 C-0.75 5.875 -0.75 5.875 -3 7 C-3.66 6.34 -4.32 5.68 -5 5 C-3.35 3.35 -1.7 1.7 0 0 Z " fill="#23488F" transform="translate(551,368)"/>
<path d="M0 0 C0.99 0 1.98 0 3 0 C2.64950425 3.24208567 2.43778819 4.61527704 -0.0625 6.8125 C-0.701875 7.204375 -1.34125 7.59625 -2 8 C-2 7.01 -2 6.02 -2 5 C-1.34 5 -0.68 5 0 5 C0 3.35 0 1.7 0 0 Z " fill="#012875" transform="translate(373,442)"/>
<path d="M0 0 C0.33 0.66 0.66 1.32 1 2 C-1.31 3.65 -3.62 5.3 -6 7 C-6.33 6.01 -6.66 5.02 -7 4 C-4.69 2.68 -2.38 1.36 0 0 Z " fill="#1B4085" transform="translate(641,633)"/>
<path d="M0 0 C3.48539917 0.64544429 6.02819057 2.10134397 9 4 C7.3125 4.6875 7.3125 4.6875 5 5 C2.25 3.6875 2.25 3.6875 0 2 C0 1.34 0 0.68 0 0 Z " fill="#103480" transform="translate(613,365)"/>
<path d="M0 0 C3.3 0.99 6.6 1.98 10 3 C10 3.33 10 3.66 10 4 C3.375 4.25 3.375 4.25 0 2 C0 1.34 0 0.68 0 0 Z " fill="#9AACCA" transform="translate(556,654)"/>
<path d="M0 0 C0.66 0.33 1.32 0.66 2 1 C0.63016497 4.16115776 0.0109362 4.9927092 -3 7 C-3.33 6.01 -3.66 5.02 -4 4 C-3.01 3.67 -2.02 3.34 -1 3 C-0.67 2.01 -0.34 1.02 0 0 Z " fill="#1C4086" transform="translate(633,450)"/>
</g>
</svg>
