<?xml version="1.0" encoding="UTF-8"?>
<svg version="1.1" xmlns="http://www.w3.org/2000/svg" width="500" height="500">
<path d="M0 0 C0 46.86 0 93.72 0 142 C-4.72262438 142.94452488 -7.91651671 142.77835848 -12.5 141.875 C-13.19834961 141.74101807 -13.89669922 141.60703613 -14.61621094 141.46899414 C-22.81947753 139.78342971 -30.56363914 136.84211978 -38 133 C-38 132.34 -38 131.68 -38 131 C-39.2684375 130.6596875 -39.2684375 130.6596875 -40.5625 130.3125 C-44.50386856 128.80761382 -47.88761859 126.87296745 -51 124 C-51 123.34 -51 122.68 -51 122 C-51.66 122 -52.32 122 -53 122 C-53.33 120.68 -53.66 119.36 -54 118 C-54.66 118 -55.32 118 -56 118 C-56 117.34 -56 116.68 -56 116 C-56.66 116 -57.32 116 -58 116 C-58 115.34 -58 114.68 -58 114 C-58.66 114 -59.32 114 -60 114 C-71.59187929 98.22340753 -75.88160869 79.34027295 -73.56640625 59.91015625 C-70.17692655 42.49524333 -61.84483833 25.5000076 -47 15 C-46.34 15 -45.68 15 -45 15 C-45 14.34 -45 13.68 -45 13 C-39.10409167 7.85929791 -32.07418773 5.00167309 -24.75 2.5625 C-23.64531372 2.17433105 -23.64531372 2.17433105 -22.51831055 1.77832031 C-14.55884853 -0.70268356 -9.09387905 0 0 0 Z " fill="#00338d" transform="translate(248,175)"/>
<path d="M0 0 C8.45767334 -0.02312659 16.91533356 -0.0409167 25.37303066 -0.05181217 C29.29988658 -0.05704031 33.22672094 -0.06413669 37.15356445 -0.07543945 C40.94014257 -0.0862708 44.7266999 -0.09227736 48.51329231 -0.09487724 C49.96104319 -0.09673105 51.40879288 -0.10035081 52.85653496 -0.10573006 C54.87757135 -0.11294367 56.89862848 -0.11340808 58.91967773 -0.11352539 C60.64842384 -0.11685631 60.64842384 -0.11685631 62.41209412 -0.12025452 C65 0 65 0 66 1 C66.11420171 2.56775449 66.1595845 4.14059039 66.17700195 5.71240234 C66.19625481 7.22065079 66.19625481 7.22065079 66.21589661 8.7593689 C66.22328354 9.85713654 66.23067047 10.95490417 66.23828125 12.0859375 C66.246353 13.21262848 66.25442474 14.33931946 66.26274109 15.50015259 C66.2766097 17.89608206 66.28731935 20.29203152 66.29516602 22.68798828 C66.31226464 26.32493771 66.35611296 29.96095111 66.40039062 33.59765625 C66.41052726 35.92707665 66.41904031 38.25650479 66.42578125 40.5859375 C66.44328934 41.66346283 66.46079742 42.74098816 66.47883606 43.85116577 C66.45476413 52.38389891 64.77986226 59.8302066 60 67 C59.34 67 58.68 67 58 67 C57.62875 67.928125 57.62875 67.928125 57.25 68.875 C55.79371361 71.35068687 54.62187494 71.95125002 52 73 C52 73.66 52 74.32 52 75 C50.44148245 75.82011312 48.87798284 76.63076213 47.3125 77.4375 C46.44238281 77.88996094 45.57226562 78.34242188 44.67578125 78.80859375 C36.82859112 82.30259811 28.44159124 81.67540368 20.4296875 79.0546875 C15.28762348 76.82260183 10.7199585 73.18637532 7 69 C7 68.34 7 67.68 7 67 C6.34 67 5.68 67 5 67 C4.34760842 65.60721983 3.70339448 64.21060788 3.0625 62.8125 C2.70285156 62.03519531 2.34320313 61.25789063 1.97265625 60.45703125 C0.27645952 56.17226121 -0.12446531 52.15096348 -0.11352539 47.56713867 C-0.11344986 46.50641647 -0.11337433 45.44569427 -0.11329651 44.35282898 C-0.10813522 43.2193251 -0.10297394 42.08582123 -0.09765625 40.91796875 C-0.0962413 39.74865311 -0.09482635 38.57933746 -0.09336853 37.37458801 C-0.08777793 33.64553249 -0.07522709 29.91653733 -0.0625 26.1875 C-0.05748379 23.65690191 -0.05292109 21.12630288 -0.04882812 18.59570312 C-0.03781157 12.39711487 -0.02108273 6.19856175 0 0 Z " fill="#00338d" transform="translate(254,239)"/>
<path d="M0 0 C6.61842651 5.09001869 11.41164088 11.09207945 12.84375 19.41796875 C13.89761632 28.94793137 11.8030287 36.1781938 6.03125 43.79296875 C1.94770709 48.62578559 -1.95153117 51.17702498 -8.15625 52.41796875 C-18.6887801 53.04247453 -25.93568157 52.99568855 -34.34375 46.16796875 C-39.9157162 41.02710245 -43.28385493 35.08162392 -44.15625 27.41796875 C-44.26259281 19.44225836 -42.98222159 11.55138448 -37.40625 5.52734375 C-32.79760514 1.41796875 -32.79760514 1.41796875 -30.15625 1.41796875 C-30.15625 0.75796875 -30.15625 0.09796875 -30.15625 -0.58203125 C-21.01430186 -4.61524366 -8.85262852 -5.19529258 0 0 Z " fill="#00338d" transform="translate(302.15625,175.58203125)"/>
<path d="M0 0 C0 46.86 0 93.72 0 142 C-4.72233926 142.94446785 -7.91673719 142.77886616 -12.5 141.875 C-13.54752441 141.67293945 -13.54752441 141.67293945 -14.61621094 141.46679688 C-22.86205052 139.76592856 -31.39718218 137.40802221 -38 132 C-33.65535464 132.60825035 -29.32448133 133.26167392 -25 134 C-25 134.66 -25 135.32 -25 136 C-22.03 136.66 -19.06 137.32 -16 138 C-16 138.66 -16 139.32 -16 140 C-11.71 140 -7.42 140 -3 140 C-3.00523682 138.02241699 -3.01047363 136.04483398 -3.01586914 134.00732422 C-3.03915033 124.6298934 -3.05311929 115.2524544 -3.0625 105.875 C-3.06335602 105.02540207 -3.06421204 104.17580414 -3.06509399 103.30046082 C-3.08733018 78.27926697 -2.94260983 53.26742387 -2.5 28.25 C-2.48804218 27.57367271 -2.47608437 26.89734543 -2.46376419 26.20052338 C-2.32016239 18.13346056 -2.16622304 10.06662791 -2 2 C-3.9587043 2.14076315 -5.91696093 2.2877676 -7.875 2.4375 C-8.96554688 2.51871094 -10.05609375 2.59992188 -11.1796875 2.68359375 C-13.94728971 2.83001703 -13.94728971 2.83001703 -16 4 C-18.6723621 4.13415472 -21.32250488 4.04318541 -24 4 C-17.91931873 -2.08068127 -7.51547352 0 0 0 Z " fill="#00338d" transform="translate(248,175)"/>
<path d="M0 0 C16.1816763 -0.04010881 16.1816763 -0.04010881 23.05664062 -0.04882812 C27.75562666 -0.05481585 32.45459328 -0.06191425 37.15356445 -0.07543945 C40.94014257 -0.0862708 44.7266999 -0.09227736 48.51329231 -0.09487724 C49.96104319 -0.09673105 51.40879288 -0.10035081 52.85653496 -0.10573006 C54.87757135 -0.11294367 56.89862848 -0.11340808 58.91967773 -0.11352539 C60.64842384 -0.11685631 60.64842384 -0.11685631 62.41209412 -0.12025452 C65 0 65 0 66 1 C66.11420171 2.56775449 66.1595845 4.14059039 66.17700195 5.71240234 C66.19625481 7.22065079 66.19625481 7.22065079 66.21589661 8.7593689 C66.22328354 9.85713654 66.23067047 10.95490417 66.23828125 12.0859375 C66.246353 13.21262848 66.25442474 14.33931946 66.26274109 15.50015259 C66.2766097 17.89608206 66.28731935 20.29203152 66.29516602 22.68798828 C66.31226464 26.32493771 66.35611296 29.96095111 66.40039062 33.59765625 C66.41052726 35.92707665 66.41904031 38.25650479 66.42578125 40.5859375 C66.44328934 41.66346283 66.46079742 42.74098816 66.47883606 43.85116577 C66.45833317 51.11878823 65.33465896 57.46722552 62 64 C61.01 64.495 61.01 64.495 60 65 C60.21062576 64.42396027 60.42125153 63.84792053 60.63825989 63.25442505 C62.99893116 56.2307128 63.46960127 49.80377842 63.51171875 42.4296875 C63.52835571 41.39787354 63.54499268 40.36605957 63.56213379 39.30297852 C63.61943176 35.49385406 63.65206007 31.68439053 63.6875 27.875 C63.790625 19.33625 63.89375 10.7975 64 2 C43.21 2 22.42 2 1 2 C1 18.83 1 35.66 1 53 C0.67 53 0.34 53 0 53 C0 35.51 0 18.02 0 0 Z " fill="#00338d" transform="translate(254,239)"/>
<path d="M0 0 C0.33 0 0.66 0 1 0 C1 25.41 1 50.82 1 77 C-13.77300631 77 -22.50103243 75.39962153 -35 69 C-31.72814447 67.92689142 -29.57052408 68.10736898 -26.25 68.9375 C-25.45078125 69.13214844 -24.6515625 69.32679688 -23.828125 69.52734375 C-22.92320312 69.76130859 -22.92320312 69.76130859 -22 70 C-22 70.66 -22 71.32 -22 72 C-19.03 72.66 -16.06 73.32 -13 74 C-13 74.66 -13 75.32 -13 76 C-8.71 76 -4.42 76 0 76 C0 50.92 0 25.84 0 0 Z " fill="#00338d" transform="translate(245,239)"/>
<path d="M0 0 C0.66 0.33 1.32 0.66 2 1 C1.34 2.32 0.68 3.64 0 5 C-0.66 5 -1.32 5 -2 5 C-1.67 6.65 -1.34 8.3 -1 10 C-1.58523437 10.10183594 -2.17046875 10.20367187 -2.7734375 10.30859375 C-5.36728051 11.11405026 -6.6486673 12.22111512 -8.625 14.0625 C-11.79058824 17 -11.79058824 17 -14 17 C-13.938125 17.763125 -13.87625 18.52625 -13.8125 19.3125 C-14.04212105 22.60373501 -14.75688317 22.75688317 -17 25 C-17.7166207 27.31847874 -18.38242027 29.65319703 -19 32 C-19.62469505 33.35350594 -20.2716331 34.69934483 -21 36 C-21.66 36 -22.32 36 -23 36 C-23.33 36.99 -23.66 37.98 -24 39 C-22.05517902 23.83039639 -13.5007839 11.26108625 -2 1.4375 C-1.34 0.963125 -0.68 0.48875 0 0 Z " fill="#00338d" transform="translate(201,190)"/>
<path d="M0 0 C4.84688192 0.78175515 9.3766367 2.39844278 14 4 C14 4.66 14 5.32 14 6 C16.37528151 5.85796663 18.75015251 5.71148388 21.125 5.5625 C22.12273437 5.50352539 22.12273437 5.50352539 23.140625 5.44335938 C27.15018817 5.187848 31.04994196 4.73217587 35 4 C33.02 4.99 33.02 4.99 31 6 C31 6.66 31 7.32 31 8 C22.09929793 10.29695537 12.80686571 9.3907948 4.8125 4.72265625 C3.14756231 3.56458467 1.56357949 2.29165262 0 1 C0 0.67 0 0.34 0 0 Z " fill="#00338d" transform="translate(265,311)"/>
<path d="M0 0 C0.33 0 0.66 0 1 0 C1.00586624 0.65066437 1.01173248 1.30132874 1.01777649 1.97171021 C1.08178355 8.75290906 1.16622263 15.53363656 1.26245117 22.31445312 C1.29567514 24.84401225 1.32371489 27.37364505 1.34643555 29.90332031 C1.38002704 33.54263667 1.43234754 37.18127934 1.48828125 40.8203125 C1.49467117 41.94865509 1.5010611 43.07699768 1.50764465 44.23953247 C1.6154615 50.01677129 2.00223347 53.91780608 5 59 C5 60.32 5 61.64 5 63 C5.66 63 6.32 63 7 63 C7.33 64.65 7.66 66.3 8 68 C7.34 67.67 6.68 67.34 6 67 C6 66.34 6 65.68 6 65 C5.34 65 4.68 65 4 65 C-0.20177091 57.64704979 -0.5367715 51.21352811 -0.390625 42.87109375 C-0.38496521 41.64084976 -0.37930542 40.41060577 -0.37347412 39.14308167 C-0.3512092 35.24081355 -0.3010284 31.33948732 -0.25 27.4375 C-0.22765076 24.7806124 -0.21167396 22.12373365 -0.1953125 19.46679688 C-0.15137663 12.97754703 -0.08456265 6.48884083 0 0 Z " fill="#00338d" transform="translate(255,241)"/>
<path d="M0 0 C0.66 0.33 1.32 0.66 2 1 C0.88200014 2.33920838 -0.24461897 3.67122556 -1.375 5 C-2.31472656 6.11375 -2.31472656 6.11375 -3.2734375 7.25 C-4.12808594 8.11625 -4.12808594 8.11625 -5 9 C-5.66 9 -6.32 9 -7 9 C-7.144375 10.134375 -7.28875 11.26875 -7.4375 12.4375 C-8 16 -8 16 -9 17 C-9.23527773 19.34987262 -9.41386417 21.70556039 -9.5625 24.0625 C-9.64628906 25.35285156 -9.73007812 26.64320313 -9.81640625 27.97265625 C-9.87699219 28.97167969 -9.93757813 29.97070312 -10 31 C-9.01 31 -8.02 31 -7 31 C-7 33.31 -7 35.62 -7 38 C-9.83928298 36.58035851 -10.00490403 34.9600956 -11 32 C-12.78925125 23.4842403 -12.35927814 14.25402085 -7.56640625 6.7578125 C-5.22950906 3.94887373 -3.05716654 2.03811103 0 0 Z " fill="#00338d" transform="translate(270,177)"/>
<path d="M0 0 C0 2.97 0 5.94 0 9 C-0.33 9 -0.66 9 -1 9 C-1 6.69 -1 4.38 -1 2 C-2.9587043 2.14076315 -4.91696093 2.2877676 -6.875 2.4375 C-7.96554688 2.51871094 -9.05609375 2.59992188 -10.1796875 2.68359375 C-12.94728971 2.83001703 -12.94728971 2.83001703 -15 4 C-17.6723621 4.13415472 -20.32250488 4.04318541 -23 4 C-17.17038613 -1.82961387 -7.56955276 -0.18897635 0 0 Z " fill="#00338d" transform="translate(247,175)"/>
<path d="M0 0 C4.34464536 0.60825035 8.67551867 1.26167392 13 2 C13 2.66 13 3.32 13 4 C17.455 4.99 17.455 4.99 22 6 C22 6.66 22 7.32 22 8 C22.99 8.33 23.98 8.66 25 9 C16.21487016 8.48322766 6.84554063 5.68246334 0 0 Z " fill="#00338d" transform="translate(210,307)"/>
<path d="M0 0 C2.5962519 1.29812595 2.6848573 2.23577679 3.625 4.9375 C6.28741523 13.508847 5.33525317 20.78098326 2 29 C1.67 29 1.34 29 1 29 C1 27.02 1 25.04 1 23 C1.66 23 2.32 23 3 23 C2.88513575 20.62412376 2.75841844 18.24984829 2.625 15.875 C2.5940625 15.20984375 2.563125 14.5446875 2.53125 13.859375 C2.28006942 9.58930515 1.46206043 6.00580784 0 2 C0 1.34 0 0.68 0 0 Z " fill="#00338d" transform="translate(310,185)"/>
<path d="M0 0 C8.31932773 2.60672269 8.31932773 2.60672269 11.8125 4.625 C16.69909506 6.73294297 21.72783721 6.75260078 27 7 C27 7.33 27 7.66 27 8 C8.96410035 8.6267301 8.96410035 8.6267301 2.0625 2.3125 C1.381875 1.549375 0.70125 0.78625 0 0 Z " fill="#00338d" transform="translate(267,220)"/>
<path d="M0 0 C-2.64738916 1.4606285 -3.89448334 2 -7 2 C-7.66 3.98 -8.32 5.96 -9 8 C-10.98 8 -12.96 8 -15 8 C-15.33 8.66 -15.66 9.32 -16 10 C-16.99 10 -17.98 10 -19 10 C-19 9.34 -19 8.68 -19 8 C-16.76953125 6.34375 -16.76953125 6.34375 -13.8125 4.5 C-12.84957031 3.8915625 -11.88664063 3.283125 -10.89453125 2.65625 C-3.95081967 -1.31693989 -3.95081967 -1.31693989 0 0 Z " fill="#00338d" transform="translate(222,180)"/>
<path d="M0 0 C0.66 0 1.32 0 2 0 C2 0.99 2 1.98 2 3 C2.66 3.33 3.32 3.66 4 4 C-3.23145879 14.20534274 -3.23145879 14.20534274 -9 16 C-11.17578125 15.5546875 -11.17578125 15.5546875 -13 15 C-11.71086513 14.32845067 -10.41859796 13.66291141 -9.125 13 C-8.40570313 12.62875 -7.68640625 12.2575 -6.9453125 11.875 C-5 11 -5 11 -3 11 C-2.67 9.02 -2.34 7.04 -2 5 C-1.01 5 -0.02 5 1 5 C0.67 3.35 0.34 1.7 0 0 Z " fill="#00338d" transform="translate(307,211)"/>
<path d="M0 0 C-0.99 0.495 -0.99 0.495 -2 1 C-3.24136719 0.53980469 -3.24136719 0.53980469 -4.5078125 0.0703125 C-9.05035939 -1.32192223 -13.1585652 -1.21733984 -17.875 -1.125 C-18.75414062 -1.11597656 -19.63328125 -1.10695312 -20.5390625 -1.09765625 C-22.6928271 -1.07424577 -24.84645014 -1.0383801 -27 -1 C-20.96014347 -7.03985653 -6.58766778 -4.32903883 0 0 Z " fill="#00338d" transform="translate(302,176)"/>
<path d="M0 0 C2.5390625 1.171875 2.5390625 1.171875 5.078125 2.34375 C7.29242836 3.21542924 7.29242836 3.21542924 11 3 C11 3.99 11 4.98 11 6 C12.32 6.66 13.64 7.32 15 8 C13.4375 8.75 13.4375 8.75 11 9 C7.09057833 7.04528917 3.29560844 4.90013543 0 2 C0 1.34 0 0.68 0 0 Z " fill="#00338d" transform="translate(197,297)"/>
<path d="M0 0 C0.33 0 0.66 0 1 0 C1 5.28 1 10.56 1 16 C1.99 16 2.98 16 4 16 C4 18.31 4 20.62 4 23 C2 22 2 22 0.91796875 19.77734375 C-1.16973379 13.46093309 -1.57435708 6.4723569 0 0 Z " fill="#00338d" transform="translate(259,192)"/>
<path d="M0 0 C3 2 3 2 3.66015625 4.34765625 C3.79292969 5.24355469 3.92570313 6.13945312 4.0625 7.0625 C4.42289259 9.71396495 4.42289259 9.71396495 5 12 C5.66 12.33 6.32 12.66 7 13 C7 14.98 7 16.96 7 19 C3.36794019 15.07527421 2.22662473 11.9124423 1.25 6.6875 C1.00765625 5.43324219 0.7653125 4.17898438 0.515625 2.88671875 C0.34546875 1.93410156 0.1753125 0.98148437 0 0 Z " fill="#00338d" transform="translate(176,260)"/>
<path d="M0 0 C0.99 0.33 1.98 0.66 3 1 C3 1.66 3 2.32 3 3 C2.34 3 1.68 3 1 3 C0.7525 3.61875 0.505 4.2375 0.25 4.875 C-1.20628639 7.35068687 -2.37812506 7.95125002 -5 9 C-5 9.66 -5 10.32 -5 11 C-5.66 11 -6.32 11 -7 11 C-6.67 9.68 -6.34 8.36 -6 7 C-4.68 6.67 -3.36 6.34 -2 6 C-2 4.68 -2 3.36 -2 2 C-1.34 2 -0.68 2 0 2 C0 1.34 0 0.68 0 0 Z " fill="#00338d" transform="translate(311,303)"/>
<path d="M0 0 C0.66 0 1.32 0 2 0 C4.03435531 3.72965139 5 5.66905042 5 10 C5.66 10 6.32 10 7 10 C7.33 11.65 7.66 13.3 8 15 C7.34 14.67 6.68 14.34 6 14 C6 13.34 6 12.68 6 12 C5.34 12 4.68 12 4 12 C3.32645501 10.56570999 2.66140299 9.12742943 2 7.6875 C1.62875 6.88699219 1.2575 6.08648437 0.875 5.26171875 C0 3 0 3 0 0 Z " fill="#00338d" transform="translate(255,294)"/>
<path d="M0 0 C4.08378283 0.74250597 8.01939223 1.82923301 12 3 C11.34 3.66 10.68 4.32 10 5 C10.66 5.66 11.32 6.32 12 7 C7.0682659 6.55166054 3.6807076 4.13973905 0 1 C0 0.67 0 0.34 0 0 Z " fill="#A0C9F6" transform="translate(265,311)"/>
<path d="M0 0 C1.98 0.99 1.98 0.99 4 2 C4 2.66 4 3.32 4 4 C4.99 4 5.98 4 7 4 C7 5.98 7 7.96 7 10 C6.34 10 5.68 10 5 10 C3.7109375 8.3203125 3.7109375 8.3203125 2.375 6.125 C1.92898437 5.40570313 1.48296875 4.68640625 1.0234375 3.9453125 C0 2 0 2 0 0 Z " fill="#9ACAF6" transform="translate(183,279)"/>
<path d="M0 0 C1.32940404 3.98821211 0.43803613 6.11730245 -1 10 C-1.99 10.33 -2.98 10.66 -4 11 C-4.33 11.99 -4.66 12.98 -5 14 C-4.46515599 8.65155992 -2.53309233 4.64203897 0 0 Z " fill="#6FACF0" transform="translate(182,215)"/>
<path d="M0 0 C3.36591866 1.44253657 5.51047079 3.33264727 8 6 C7.67 6.66 7.34 7.32 7 8 C4.36 6.35 1.72 4.7 -1 3 C-0.67 2.01 -0.34 1.02 0 0 Z " fill="#9AC4F3" transform="translate(302,177)"/>
<path d="M0 0 C3.3 0.33 6.6 0.66 10 1 C10 1.66 10 2.32 10 3 C10.99 3.33 11.98 3.66 13 4 C8.28596212 3.52060632 4.33420699 3.03165952 0 1 C0 0.67 0 0.34 0 0 Z " fill="#B1D7F7" transform="translate(222,312)"/>
<path d="M0 0 C0.33 0 0.66 0 1 0 C1.36923077 5.53846154 1.36923077 5.53846154 -0.5 7.875 C-1.2425 8.431875 -1.2425 8.431875 -2 9 C-1.125 1.125 -1.125 1.125 0 0 Z " fill="#A1C8F4" transform="translate(262,185)"/>
<path d="M0 0 C2 1.125 2 1.125 4 3 C4.25 6.1875 4.25 6.1875 4 9 C0 4.5 0 4.5 0 0 Z " fill="#AFD5F7" transform="translate(179,270)"/>
</svg>
